<svg xmlns="http://www.w3.org/2000/svg" viewBox="0 0 291.53 508.38"><defs><style>.cls-1{fill:none;stroke:#fff;stroke-miterlimit:10;stroke-width:4px;}</style></defs><g id="Layer_2" data-name="Layer 2"><g id="Layer_1-2" data-name="Layer 1"><rect class="cls-1" x="39.76" y="225.38" width="65" height="45" rx="6"/><line class="cls-1" x1="72.76" y1="266.38" x2="72.76" y2="435.38"/><rect class="cls-1" x="113.76" y="226.38" width="65" height="90" rx="6"/><line class="cls-1" x1="145.76" y1="316.38" x2="145.76" y2="508.38"/><path class="cls-1" d="M142.88,216.38H34.5a9.45,9.45,0,0,1-9.23-7.81L2.17,85.22a9.76,9.76,0,0,1,2.58-8.61l2.1-2.14a9.24,9.24,0,0,1,10.81-1.82l56.92,28.71a9.31,9.31,0,0,0,12.29-3.77L138.74,6.77A9.36,9.36,0,0,1,146.86,2h0A9.36,9.36,0,0,1,155,6.85l9.38,16.81,40.74,73a9.3,9.3,0,0,0,12.17,3.94l13.22-6.36,44-21.16a9.28,9.28,0,0,1,11.73,3.23l1.63,2.4a9.78,9.78,0,0,1,1.44,7.57L262.57,208.85a9.46,9.46,0,0,1-9.18,7.53Z"/><rect class="cls-1" x="186.76" y="226.38" width="65" height="150" rx="6"/><line class="cls-1" x1="218.76" y1="376.38" x2="218.76" y2="464.38"/></g></g></svg>