<svg xmlns="http://www.w3.org/2000/svg" viewBox="0 0 319.09 568.92"><defs><style>.cls-1{stroke:#000;stroke-miterlimit:10;}</style></defs><g id="Layer_2" data-name="Layer 2"><g id="Layer_1-2" data-name="Layer 1"><polygon class="cls-1" points="47.6 242.4 112.23 242.4 112.23 289.08 73.26 289.08 47.6 289.08 47.6 242.4"/><rect class="cls-1" x="129.82" y="242.4" width="60.36" height="82.69"/><polygon class="cls-1" points="155.48 568.42 160 568.42 159.87 325.09 153.58 325.09 155.48 568.42"/><polygon class="cls-1" points="272.87 242.4 272.87 396.86 238.18 396.86 203.48 396.86 203.48 242.4 272.87 242.4"/><polyline class="cls-1" points="235.32 513.29 232.95 513.29 232.95 396.86 238.18 396.86 238.18 513.29"/><path class="cls-1" d="M226.62,107,168.4,5.62A10.19,10.19,0,0,0,159.55.5h0a10.21,10.21,0,0,0-8.9,5.21l-57,101.4a10.21,10.21,0,0,1-13.38,4.18L15.81,79.83a10.26,10.26,0,0,0-9.47.27l-.62.35a10.21,10.21,0,0,0-5,11.08l29,132.86a10.2,10.2,0,0,0,10,8h238.8a10.21,10.21,0,0,0,10-8L318.34,89.8a10.2,10.2,0,0,0-9.06-12.38l-1.58-.14a10.26,10.26,0,0,0-5.65,1.13l-61.82,32.52A10.21,10.21,0,0,1,226.62,107Z"/><polygon class="cls-1" points="78.61 532.41 83.13 532.41 83 289.08 76.71 289.08 78.61 532.41"/></g></g></svg>