<svg xmlns="http://www.w3.org/2000/svg" viewBox="0 0 319.09 232.92"><defs><style>.cls-1{fill:#fff;stroke:#000;stroke-miterlimit:10;}</style></defs><g id="Layer_2" data-name="Layer 2"><g id="Layer_1-2" data-name="Layer 1"><path class="cls-1" d="M226.62,107,168.4,5.62A10.19,10.19,0,0,0,159.55.5h0a10.21,10.21,0,0,0-8.9,5.21l-57,101.4a10.21,10.21,0,0,1-13.38,4.18L15.81,79.83a10.26,10.26,0,0,0-9.47.27l-.62.35a10.21,10.21,0,0,0-5,11.08l29,132.86a10.2,10.2,0,0,0,10,8h238.8a10.21,10.21,0,0,0,10-8L318.34,89.8a10.2,10.2,0,0,0-9.06-12.38l-1.58-.14a10.26,10.26,0,0,0-5.65,1.13l-61.82,32.52A10.21,10.21,0,0,1,226.62,107Z"/></g></g></svg>