<svg xmlns="http://www.w3.org/2000/svg" viewBox="0 0 287.53 496.06"><defs><style>.cls-1{fill:#0a0505;}.cls-1,.cls-2{stroke:#231f20;stroke-miterlimit:10;}.cls-2{fill:none;stroke-width:5px;}</style></defs><g id="Layer_2" data-name="Layer 2"><g id="Layer_1-2" data-name="Layer 1"><rect class="cls-1" x="38.26" y="221.56" width="65" height="45" rx="6"/><line class="cls-2" x1="70.26" y1="267.06" x2="70.26" y2="436.06"/><rect class="cls-1" x="111.26" y="221.56" width="65" height="90" rx="6"/><line class="cls-2" x1="143.76" y1="304.06" x2="143.76" y2="496.06"/><rect class="cls-1" x="184.51" y="221.56" width="65" height="150" rx="6"/><path d="M140.88,214.38H32.5a9.45,9.45,0,0,1-9.23-7.81L.17,83.22a9.76,9.76,0,0,1,2.58-8.61l2.1-2.14a9.24,9.24,0,0,1,10.81-1.82L72.58,99.36a9.31,9.31,0,0,0,12.29-3.77L136.74,4.77A9.36,9.36,0,0,1,144.86,0h0A9.36,9.36,0,0,1,153,4.85l9.38,16.81,40.74,73a9.3,9.3,0,0,0,12.17,3.94l13.22-6.36,44-21.16a9.28,9.28,0,0,1,11.73,3.23l1.63,2.4a9.78,9.78,0,0,1,1.44,7.57L260.57,206.85a9.46,9.46,0,0,1-9.18,7.53Z"/><line class="cls-2" x1="217.01" y1="366.56" x2="217.01" y2="455.06"/></g></g></svg>