<svg xmlns="http://www.w3.org/2000/svg" viewBox="0 0 291.53 218.38"><defs><style>.cls-1{stroke:#000;stroke-miterlimit:10;stroke-width:4px;}</style></defs><g id="Layer_2" data-name="Layer 2"><g id="Layer_1-2" data-name="Layer 1"><path class="cls-1" d="M142.88,216.38H34.5a9.45,9.45,0,0,1-9.23-7.81L2.17,85.22a9.76,9.76,0,0,1,2.58-8.61l2.1-2.14a9.24,9.24,0,0,1,10.81-1.82l56.92,28.71a9.31,9.31,0,0,0,12.29-3.77L138.74,6.77A9.36,9.36,0,0,1,146.86,2h0A9.36,9.36,0,0,1,155,6.85l9.38,16.81,40.74,73a9.3,9.3,0,0,0,12.17,3.94l13.22-6.36,44-21.16a9.28,9.28,0,0,1,11.73,3.23l1.63,2.4a9.78,9.78,0,0,1,1.44,7.57L262.57,208.85a9.46,9.46,0,0,1-9.18,7.53Z"/></g></g></svg>